<svg width="219" height="63" viewBox="0 0 219 63" fill="none" xmlns="http://www.w3.org/2000/svg">
<path d="M93.3135 41.504C89.5455 41.504 86.4135 40.244 83.9175 37.724C81.4455 35.228 80.2095 32.12 80.2095 28.4C80.2095 24.656 81.4455 21.548 83.9175 19.076C86.4135 16.556 89.5455 15.296 93.3135 15.296C95.5935 15.296 97.6935 15.836 99.6135 16.916C101.557 17.972 103.069 19.412 104.149 21.236L99.8655 23.72C99.2415 22.592 98.3535 21.716 97.2015 21.092C96.0495 20.444 94.7535 20.12 93.3135 20.12C90.8655 20.12 88.8855 20.888 87.3735 22.424C85.8855 23.984 85.1415 25.976 85.1415 28.4C85.1415 30.8 85.8855 32.78 87.3735 34.34C88.8855 35.876 90.8655 36.644 93.3135 36.644C94.7535 36.644 96.0495 36.332 97.2015 35.708C98.3775 35.06 99.2655 34.184 99.8655 33.08L104.149 35.564C103.069 37.388 101.557 38.84 99.6135 39.92C97.6935 40.976 95.5935 41.504 93.3135 41.504ZM105.503 23H121.451V27.464H115.835V41H111.191V27.464H105.503V23ZM131.952 35.096L135.948 23H140.916L134.364 41C132.54 46.064 129.372 48.464 124.86 48.2V43.88C126.084 43.904 127.044 43.676 127.74 43.196C128.46 42.716 129.036 41.912 129.468 40.784L122.196 23H127.128L131.952 35.096ZM158.201 23V36.644H160.577V45.824H156.041V41H144.881V45.824H140.345V36.644H142.541C143.573 35.108 144.089 32.984 144.089 30.272V23H158.201ZM147.509 36.644H153.665V27.176H148.625V30.272C148.625 32.864 148.253 34.988 147.509 36.644ZM180.309 33.908H166.737C167.337 36.164 169.029 37.292 171.813 37.292C173.589 37.292 174.933 36.692 175.845 35.492L179.589 37.652C177.813 40.22 175.197 41.504 171.741 41.504C168.765 41.504 166.377 40.604 164.577 38.804C162.777 37.004 161.877 34.736 161.877 32C161.877 29.312 162.765 27.056 164.541 25.232C166.293 23.408 168.573 22.496 171.381 22.496C174.045 22.496 176.217 23.408 177.897 25.232C179.625 27.056 180.489 29.312 180.489 32C180.489 32.504 180.429 33.14 180.309 33.908ZM166.665 30.308H175.845C175.581 29.132 175.041 28.232 174.225 27.608C173.433 26.984 172.485 26.672 171.381 26.672C170.133 26.672 169.101 26.996 168.285 27.644C167.469 28.268 166.929 29.156 166.665 30.308ZM195.539 29.804V23H200.183V41H195.539V34.16H188.375V41H183.731V23H188.375V29.804H195.539ZM202.674 23H218.622V27.464H213.006V41H208.362V27.464H202.674V23Z" fill="black"/>
<circle cx="31.5" cy="31.5" r="31.5" fill="black"/>
<path d="M16.7999 42.0001L31.4999 23.1001L46.1999 42.0001" stroke="white" stroke-width="7" stroke-linejoin="round"/>
</svg>
